<svg focusable="false" width="182" height="19" viewBox="0 0 182 19" fill="none" xmlns="http://www.w3.org/2000/svg"><g clip-path="url(#a)"><path d="M153.312.398h-4.014v18.077h4.718l5.975-12.225h.091l-.275 12.225h4.013V.398h-4.718l-5.974 12.225h-.092l.276-12.225zm-43.874 9.13v-.214c0-3.86 2.574-5.392 6.771-5.392 4.198 0 6.802 1.532 6.802 5.392v.214c0 3.86-2.604 5.423-6.802 5.423-4.228-.03-6.771-1.593-6.771-5.423zm-4.749.246c0 5.514 4.565 9.099 11.52 9.099 6.955 0 11.551-3.554 11.551-9.1V9.07c0-5.515-4.596-9.038-11.551-9.038s-11.52 3.523-11.52 9.038v.705zM181.1.398h-11.489l-.153 10.019c-.062 3.064-.521 4.136-2.176 4.136h-1.041v3.922h1.164c4.442 0 5.729-1.777 5.852-8.058l.092-6.557h3.737v14.615h3.983V.398h.031zM80.761 18.475h4.136l-.184-11.98h.092l4.504 11.98h4.136l4.443-11.98h.092l-.184 11.98h4.136V.398h-5.699l-4.81 13.359h-.092L86.46.398H80.76v18.077zm59.683-3.493h-5.699v-3.4h5.699c1.348 0 1.93.581 1.93 1.715 0 1.133-.582 1.685-1.93 1.685zM130.486.398v18.077h9.804c3.585 0 6.251-1.318 6.251-5.178s-2.635-5.147-6.251-5.147h-5.514V3.952h11.152V.398h-15.442z" fill="#FA6400"></path><path d="M21.385 13.94l-4.197-1.807c-1.318 2.359-3.462 2.88-6.066 2.88-4.29 0-6.465-1.9-6.465-5.454v-.245c0-3.554 2.175-5.454 6.464-5.454 2.605 0 4.75.49 6.067 2.88l4.197-1.807C19.394.827 15.35 0 11.121 0 4.29 0 0 3.523 0 9.1v.673c0 5.607 4.29 9.1 11.121 9.1 4.229-.03 8.273-.827 10.264-4.933zM61.367.398h-4.442v18.077h4.933L72.366 5.882h.092l-.06 12.593h4.442V.398h-4.933L61.398 12.99h-.092L61.368.398zm-33.548 0h-4.013v18.077h4.718L34.498 6.25h.092l-.276 12.225h4.014V.398H33.61l-5.944 12.225h-.092L27.819.398zm17.74 3.554v14.492h4.166V3.952h4.84V.398H40.719v3.554h4.84z" fill="#6E00BE"></path></g><defs><clipPath id="a"><path fill="#fff" d="M0 0h181.1v18.842H0z"></path></clipPath></defs></svg>